<?xml version="1.0" encoding="UTF-8" standalone="no"?>
<!-- Generator: Adobe Illustrator 17.0.0, SVG Export Plug-In . SVG Version: 6.00 Build 0)  -->

<svg
   version="1.1"
   id="Calque_1"
   x="0px"
   y="0px"
   width="144"
   height="36.848194"
   viewBox="0 0 239.40239 61.260732"
   enable-background="new 0 0 743.5 371.75"
   xml:space="preserve"
   sodipodi:docname="Rolex_logo.svg"
   inkscape:export-filename="bolex.png"
   inkscape:export-xdpi="96"
   inkscape:export-ydpi="96"
   inkscape:version="1.2.2 (b0a8486541, 2022-12-01)"
   xmlns:inkscape="http://www.inkscape.org/namespaces/inkscape"
   xmlns:sodipodi="http://sodipodi.sourceforge.net/DTD/sodipodi-0.dtd"
   xmlns="http://www.w3.org/2000/svg"
   xmlns:svg="http://www.w3.org/2000/svg"><defs
   id="defs2979" /><sodipodi:namedview
   id="namedview2977"
   pagecolor="#000000"
   bordercolor="#666666"
   borderopacity="1.0"
   inkscape:showpageshadow="2"
   inkscape:pageopacity="0"
   inkscape:pagecheckerboard="0"
   inkscape:deskcolor="#d1d1d1"
   showgrid="false"
   inkscape:zoom="2.1108482"
   inkscape:cx="19.660343"
   inkscape:cy="53.532983"
   inkscape:window-width="3440"
   inkscape:window-height="1421"
   inkscape:window-x="2560"
   inkscape:window-y="0"
   inkscape:window-maximized="1"
   inkscape:current-layer="g31184"
   shape-rendering="crispEdges" />



<g
   id="g31184"
   transform="matrix(0.35845706,0,0,0.35845706,0,1.3979826e-6)"
   inkscape:export-filename="./bolex.png"
   inkscape:export-xdpi="96"
   inkscape:export-ydpi="96"
   inkscape:label="bolex"><path
     fill="#006039"
     d="m 662.76508,130.594 c -7.603,-0.189 -9.39,-2.53 -15.261,-9.295 l -34.676,-43.158996 22.945,-27.397 v 0.015 c 6.155,-7.048 7.82,-9.484 15.747,-9.607 h 4.897 1.096 v -7.657 h -1.096 -22.539 -1.055 -16.546 -1.055 v 7.657 h 1.055 8.225 v 0.027 c 0.027,0 0.027,0 0.027,0 2.003,0 3.611,1.583 3.611,3.572 0,0.799 -0.258,1.502 -0.664,2.097 l -20.349,24.218 -15.964,-19.875 -3.328,-4.221 c -0.501,-0.61 -0.838,-1.394 -0.838,-2.232 0,-1.976 1.61,-3.572 3.584,-3.599 h 9.105 v -7.657 h -16.168 -23.636 -13.082 v 7.657 h 2.517 c 6.738,0.312 8.685,2.611 13.99,8.7 l 30.698,38.221 -27.64,32.983996 v -0.069 c -6.182,7.075 -7.861,9.457 -15.801,9.607 h -4.83 -1.622 v 7.63 h 1.622 26.165 1.637 14.152 1.649 v -7.63 h -1.649 -9.484 v 0 h -0.012 c -1.976,0 -3.611,-1.595 -3.611,-3.626 0,-0.838 0.312,-1.61 0.826,-2.22 l 24.543,-29.317996 20.389,25.422996 3.112,3.869 c 0.487,0.637 0.826,1.406 0.826,2.247 0,1.989 -1.622,3.626 -3.626,3.626 0,0 0,0 -0.027,0 v 0 h -9.781 v 7.63 h 0.081 v 0 h 56.945 v -7.63 h -5.101 v 0.012 z"
     id="path2962"
     style="fill:#ffffff"
     inkscape:label="x" /><path
     fill="#006039"
     d="m 526.84908,33.386004 h -0.096 -0.529 -24.392 -78.607 v 7.928 h 14.951 V 130.27 h -14.951 v 7.901 0.027 h 78.607 17.601 6.792 0.529 0.096 0.568 v -25.841 -11.878 h -7.982 v 12.488 0 c -0.081,9.58 -7.888,17.331 -17.507,17.331 -0.054,0 -0.069,0 -0.096,0 v 0 h -28.263 v 0 h -10.593 -0.312 v -42.751996 -1.406 h 7.943 c 0.081,0 0.135,0 0.204,0 h 4.425 v 0 c 7.09,0.081 12.839,5.846 12.839,12.935 0,0.123 0,0.216 -0.015,0.285 h 0.015 v 4.126996 0 1.664 h 7.21 v -1.059 -17.951996 -0.069 -6.426 -0.027 -17.967 -0.352 h -7.198 v 5.086 h -0.015 c 0,0.096 0.015,0.204 0.015,0.285 0,7.102 -5.75,12.163 -12.854,12.244 v 0 h -4.626 -4.939 -3.004 v -37.585 h 0.312 22.581 c 0.108,0 0.231,0 0.339,0 h 16.099 c 9.592,0.054 17.345,7.78 17.426,17.318 v 0 10.782 h 7.982 v -10.16 -25.829 -0.042 h -0.556 v -0.012 z"
     id="path2960"
     style="fill:#ffffff"
     inkscape:label="e"
     transform="translate(0)" /><path
     fill="#006039"
     d="m 406.59808,97.258004 h -7.874 V 113.087 c -0.243,9.484 -7.97,17.114 -17.507,17.114 -0.042,0 -0.081,-0.015 -0.108,-0.015 v 0.027 h -24.137 -9.132 V 41.275004 h 15.248 v -7.915 h -15.248 v 0 h -1.677 -38.058 v 7.915 h 15.261 V 130.219 h -15.261 v 7.928 h 90.62 6.711 0.622 0.541 v -0.027 h 0.081 v -25.87 h -0.081 V 97.258004 Z"
     id="path2958"
     style="fill:#ffffff"
     inkscape:label="l"
     transform="translate(0)" /><path
     fill="#006039"
     d="m 236.96808,29.409004 c -31.443,0 -56.933,25.531 -56.933,56.148 0,30.656996 25.489,56.160996 56.933,56.160996 31.416,0 56.891,-25.516 56.891,-56.160996 0,-30.617 -25.477,-56.148 -56.891,-56.148 z m 23.648,88.591996 c -1.758,2.638 -3.965,4.993 -6.549,6.885 -4.208,3.368 -9.009,5.317 -14.11,5.494 -0.961,0.108 -1.976,0.216 -2.989,0.216 -1.055,0 -2.043,-0.108 -3.043,-0.216 -5.101,-0.189 -9.862,-2.124 -14.083,-5.494 -2.584,-1.895 -4.803,-4.236 -6.549,-6.885 -5.912,-8.171 -9.619,-19.616996 -9.619,-32.335996 0,-11.959 3.301,-22.81 8.564,-30.779 2.962,-5.302 7.603,-9.499 13.287,-11.959 0.042,-0.015 0.081,-0.042 0.135,-0.069 0.258,-0.108 0.529,-0.216 0.826,-0.312 0.745,-0.312 1.514,-0.568 2.301,-0.811 2.584,-0.757 5.344,-1.177 8.186,-1.177 2.842,0 5.588,0.42 8.171,1.177 0.799,0.243 1.556,0.487 2.328,0.799 0.258,0.123 0.529,0.231 0.826,0.324 0.027,0.054 0.081,0.054 0.135,0.069 5.629,2.463 10.337,6.657 13.26,11.959 5.302,8.024 8.564,18.86 8.564,30.779 -0.022,12.717 -3.714,24.176996 -9.641,32.335996 z"
     id="path2956"
     style="fill:#ffffff"
     inkscape:label="o"
     transform="translate(0)" /><g
     id="g3031"
     inkscape:label="b"><path
       d="m 170.90117,151.91215 c 0,10.48668 -8.50233,18.98902 -18.98902,18.98902 H 18.989019 C 8.5023332,170.90117 0,162.39883 0,151.91215 V 18.989015 C 0,8.5023293 8.5023332,-3.9e-6 18.989019,-3.9e-6 H 151.91215 c 10.48669,0 18.98902,8.5023332 18.98902,18.9890189 z"
       id="path24"
       style="display:inline;fill:#ffffff;fill-opacity:1;fill-rule:nonzero;stroke:none;stroke-width:4.74725"
       clip-path="none"
       inkscape:label="bg" /><path
       d="m 71.915687,118.24082 h 17.370205 c 7.946904,0 13.838248,-4.56211 13.838248,-12.80335 0,-6.921495 -5.302684,-11.630772 -15.604227,-11.630772 H 71.915687 Z m 0,-43.864635 h 11.483609 c 7.21108,0 11.920356,-4.267782 11.920356,-11.626027 0,-6.91675 -5.445101,-10.453455 -11.920356,-10.453455 H 71.915687 Z M 49.840952,43.908304 c 0,-7.063915 4.856442,-11.037367 11.626027,-11.037367 h 28.260407 c 15.305154,0 27.676494,10.301543 27.676494,25.905769 0,10.301543 -4.27728,17.22304 -13.69583,21.63324 v 0.299077 c 12.51376,1.765978 22.37381,12.214686 22.37381,25.018027 0,20.755 -13.8335,31.94428 -34.151747,31.94428 H 61.614144 c -6.774332,0 -11.773192,-4.27253 -11.773192,-11.18928 z"
       id="path28"
       style="display:inline;fill:#000000;fill-opacity:1;fill-rule:nonzero;stroke:none;stroke-width:4.74725"
       clip-path="none"
       inkscape:label="fg" /></g></g></svg>
